<?xml version="1.0" standalone="no"?>
<!DOCTYPE svg PUBLIC "-//W3C//DTD SVG 20010904//EN"
 "http://www.w3.org/TR/2001/REC-SVG-20010904/DTD/svg10.dtd">
<svg version="1.0" xmlns="http://www.w3.org/2000/svg"
 width="4027.000000pt" height="4028.000000pt" viewBox="0 0 4027.000000 4028.000000"
 preserveAspectRatio="xMidYMid meet">

<g transform="translate(0.000000,4028.000000) scale(0.100000,-0.100000)"
fill="#000000" stroke="none">
<path d="M20870 20420 l0 -1540 150 0 150 0 0 508 c0 279 5 555 10 613 16 172
56 259 162 354 97 87 197 125 353 132 119 6 199 -8 283 -48 61 -30 131 -104
163 -174 56 -122 59 -159 59 -800 l0 -585 155 0 155 0 0 678 c0 643 -1 683
-20 756 -55 215 -199 356 -427 417 -112 31 -344 31 -456 1 -122 -33 -230 -95
-318 -182 -42 -41 -85 -88 -97 -105 l-21 -30 -1 773 0 772 -150 0 -150 0 0
-1540z"/>
<path d="M26730 21158 l0 -803 -49 76 c-148 232 -391 348 -681 325 -287 -23
-488 -141 -638 -375 -175 -271 -202 -775 -57 -1088 138 -299 382 -466 712
-489 283 -19 556 119 686 348 12 21 25 38 30 38 4 0 7 -70 7 -155 l0 -155 150
0 150 0 0 1540 0 1540 -155 0 -155 0 0 -802z m-451 -723 c206 -49 367 -213
433 -440 30 -105 32 -331 4 -440 -60 -234 -218 -395 -431 -440 -156 -33 -343
-9 -453 58 -120 72 -215 205 -262 367 -31 105 -39 343 -16 455 50 243 205 397
451 449 49 10 215 4 274 -9z"/>
<path d="M10730 21735 l0 -105 654 0 653 0 171 -482 c94 -266 367 -1037 606
-1714 240 -677 436 -1238 435 -1245 0 -8 -52 -60 -114 -116 l-113 -103 -256 0
-256 0 0 -105 0 -105 2140 0 2140 0 0 105 0 105 -1737 0 -1738 1 84 78 85 78
-72 204 c-40 111 -69 206 -64 209 4 4 405 80 892 169 487 89 1259 231 1715
315 l830 153 3 836 2 837 -2136 2 -2136 3 -159 450 c-87 248 -166 469 -175
493 l-16 42 -719 0 -719 0 0 -105z"/>
<path d="M24526 21788 c-52 -14 -131 -93 -145 -144 -25 -91 -7 -162 59 -225
103 -100 263 -86 344 29 26 37 31 54 34 115 3 65 0 77 -27 124 -53 89 -160
130 -265 101z"/>
<path d="M19930 21065 l0 -365 -170 0 -170 0 0 -130 0 -130 170 0 170 0 0
-780 0 -780 155 0 155 0 0 780 0 780 165 0 165 0 0 130 0 130 -165 0 -165 0 0
365 0 365 -155 0 -155 0 0 -365z"/>
<path d="M23875 20754 c-11 -2 -45 -9 -75 -15 -146 -30 -285 -143 -390 -317
-30 -50 -58 -91 -62 -92 -5 0 -8 83 -8 185 l0 185 -135 0 -135 0 0 -910 0
-910 154 0 155 0 4 558 c3 536 4 560 25 641 58 220 168 344 343 386 83 19 158
18 242 -4 37 -10 70 -15 72 -11 8 13 95 258 95 268 0 22 -222 51 -285 36z"/>
<path d="M28158 20745 c-423 -69 -688 -440 -688 -960 0 -494 239 -854 632
-954 318 -82 620 11 808 247 28 35 58 78 68 95 17 32 17 30 20 -130 l2 -163
150 0 150 0 0 910 0 910 -155 0 -155 0 0 -172 0 -173 -48 75 c-103 160 -237
259 -417 305 -87 22 -263 27 -367 10z m381 -310 c215 -51 383 -229 438 -462
25 -107 25 -309 0 -416 -38 -163 -150 -318 -276 -381 -168 -85 -414 -88 -589
-6 -91 42 -191 145 -237 241 -54 116 -67 177 -72 349 -4 134 -2 167 16 244 55
229 205 385 414 431 84 18 228 18 306 0z"/>
<path d="M24450 19790 l0 -910 150 0 150 0 0 910 0 910 -150 0 -150 0 0 -910z"/>
<path d="M13190 17591 c-205 -67 -294 -287 -193 -473 101 -185 362 -219 512
-66 18 18 45 56 59 83 23 43 27 62 27 140 0 71 -5 100 -21 136 -53 114 -154
180 -283 185 -42 2 -87 0 -101 -5z"/>
<path d="M16135 17591 c-92 -24 -190 -113 -219 -198 -9 -27 -16 -79 -16 -123
0 -66 4 -86 30 -138 57 -114 158 -175 290 -175 94 0 167 30 228 92 86 89 116
228 73 342 -46 123 -153 200 -284 205 -40 2 -85 0 -102 -5z"/>
</g>
</svg>
