<svg xmlns="http://www.w3.org/2000/svg" viewBox="0 0 966.32 966.32"><defs><style>.cls-1{fill:none;}.cls-2{font-size:96.2px;font-family:FuturaBT-Book, Futura Bk BT;letter-spacing:-0.02em;}.cls-2,.cls-3{fill:#0071bc;}.cls-4{fill:#29abe2;}</style></defs><title>Thrida bgless-02-02</title><g id="Layer_2" data-name="Layer 2"><rect class="cls-1" x="-63.24" y="22.08" width="1093.68" height="1075.32"/></g><g id="Layer_1" data-name="Layer 1"><text class="cls-2" transform="translate(393.29 672.78)">thrida</text><polygon class="cls-3" points="471.38 452.92 455.73 455.82 456.74 458.63 458.78 464.43 461.68 472.6 455.27 478.43 454.76 478.92 595.48 478.92 595.48 487.73 421.96 487.73 421.96 478.92 442.89 478.92 452.38 470.25 448.26 458.63 447.8 457.29 422.51 385.87 402.99 330.75 350.03 330.75 350.03 322.02 408.36 322.02 411.47 330.75 422.51 361.98 595.67 361.98 595.67 430.07 486.27 450.21 486.24 450.21 471.41 452.92 471.38 452.92"/><circle class="cls-3" cx="572.42" cy="507.01" r="13.18"/><path class="cls-3" d="M466.44,507a13.18,13.18,0,1,1-13.18-13.18A13.16,13.16,0,0,1,466.44,507Z"/><rect class="cls-4" x="442.22" y="320.65" width="24.74" height="36.88"/><rect class="cls-4" x="479.07" y="302.8" width="24.74" height="54.73"/><rect class="cls-4" x="515.92" y="280.23" width="24.74" height="77.3"/><rect class="cls-4" x="552.77" y="261.89" width="24.74" height="95.64"/></g></svg>